<svg xmlns="http://www.w3.org/2000/svg" viewBox="0 0 64 64" fill="none">
  <defs>
    <linearGradient id="bg" x1="0%" y1="0%" x2="100%" y2="100%">
      <stop offset="0%" stop-color="#0a2540"/>
      <stop offset="100%" stop-color="#0891b2"/>
    </linearGradient>
  </defs>
  <!-- Background -->
  <rect width="64" height="64" rx="14" fill="url(#bg)"/>
  <!-- Connection lines -->
  <line x1="29" y1="20" x2="22" y2="28" stroke="rgba(255,255,255,0.35)" stroke-width="1.5" stroke-linecap="round"/>
  <line x1="35" y1="20" x2="42" y2="28" stroke="rgba(255,255,255,0.35)" stroke-width="1.5" stroke-linecap="round"/>
  <line x1="22" y1="38" x2="29" y2="44" stroke="rgba(255,255,255,0.35)" stroke-width="1.5" stroke-linecap="round"/>
  <line x1="42" y1="38" x2="35" y2="44" stroke="rgba(255,255,255,0.35)" stroke-width="1.5" stroke-linecap="round"/>
  <!-- Small decorative hexagons -->
  <path d="M13,14 L11.5,16.6 L8.5,16.6 L7,14 L8.5,11.4 L11.5,11.4 Z" fill="none" stroke="rgba(255,255,255,0.15)" stroke-width="0.7"/>
  <path d="M57,50 L55.5,52.6 L52.5,52.6 L51,50 L52.5,47.4 L55.5,47.4 Z" fill="none" stroke="rgba(255,255,255,0.15)" stroke-width="0.7"/>
  <!-- Accent dots -->
  <circle cx="9" cy="24" r="1" fill="rgba(255,255,255,0.12)"/>
  <circle cx="55" cy="40" r="1" fill="rgba(255,255,255,0.12)"/>
  <!-- Node A: Start (top) — flat-top hex -->
  <path d="M38,15 L35,20 L29,20 L26,15 L29,10 L35,10 Z" fill="rgba(255,255,255,0.92)"/>
  <path d="M31,13 L34,15 L31,17" stroke="#0a2540" stroke-width="1.3" fill="none" stroke-linecap="round" stroke-linejoin="round"/>
  <!-- Node B: API (left) — outline hex -->
  <path d="M25,33 L22,38 L16,38 L13,33 L16,28 L22,28 Z" fill="rgba(255,255,255,0.1)" stroke="rgba(255,255,255,0.75)" stroke-width="1.2"/>
  <!-- Node C: API (right) — filled hex -->
  <path d="M51,33 L48,38 L42,38 L39,33 L42,28 L48,28 Z" fill="rgba(255,255,255,0.85)"/>
  <!-- Node D: Validated (bottom) — filled hex with checkmark -->
  <path d="M38,49 L35,54 L29,54 L26,49 L29,44 L35,44 Z" fill="rgba(255,255,255,0.92)"/>
  <path d="M30,49 L31.5,51 L34.5,47" stroke="#0891b2" stroke-width="1.5" fill="none" stroke-linecap="round" stroke-linejoin="round"/>
</svg>
